<svg width="32" height="32" viewBox="0 0 32 32" fill="none" xmlns="http://www.w3.org/2000/svg">
<g clip-path="url(#clip0_2185_10629)">
<path fill-rule="evenodd" clip-rule="evenodd" d="M15.074 1.64412C14.9784 1.65537 14.6522 1.68912 14.3503 1.71912C10.8384 2.06975 7.30028 3.881 4.90778 6.55475C2.26215 9.51163 0.917777 13.181 1.04153 17.0904C1.25715 23.8423 5.89778 29.5591 12.4809 31.1866C16.3415 32.141 20.5865 31.4604 23.9503 29.3491C27.3065 27.2398 29.6559 23.9904 30.5953 20.1541C30.9178 18.8398 30.9928 18.1704 30.9928 16.616C30.9928 15.0616 30.9178 14.3923 30.5953 13.0779C29.1103 7.01225 24.1153 2.54975 17.8997 1.736C17.3672 1.66662 15.4303 1.60475 15.074 1.64412ZM17.624 4.54663C19.7128 4.81663 21.6684 5.621 23.4197 6.92975C24.0365 7.391 25.2497 8.60413 25.7109 9.221C26.7628 10.6291 27.5409 12.2848 27.8934 13.8691C28.2947 15.6785 28.2947 17.5535 27.8934 19.3629C27.1172 22.8523 24.659 25.9498 21.4003 27.5435C20.2228 28.1191 19.0078 28.496 17.6747 28.6985C16.8797 28.8204 15.1697 28.8204 14.3747 28.6985C10.7222 28.1435 7.63965 26.1504 5.69903 23.0866C5.29778 22.4548 4.77278 21.3523 4.51028 20.5891C4.0584 19.2823 3.8634 18.0804 3.8634 16.616C3.8634 14.6679 4.24028 13.0066 5.07465 11.291C5.71215 9.98225 6.3609 9.0785 7.42403 8.01538C8.48715 6.95225 9.3909 6.3035 10.6997 5.666C12.8615 4.61413 15.2128 4.23538 17.624 4.54663ZM15.4734 9.65975C15.0534 9.79663 14.8153 10.0366 14.699 10.4379C14.6315 10.6666 14.624 11.1898 14.6353 14.396C14.6503 18.0898 14.6503 18.0916 14.759 18.296C14.8959 18.5529 15.1584 18.7854 15.4078 18.8735C15.6553 18.9598 16.394 18.9598 16.6415 18.8735C16.8909 18.7854 17.1534 18.5529 17.2903 18.296C17.399 18.0916 17.399 18.0898 17.414 14.396C17.429 10.361 17.429 10.3573 17.1422 10.0179C16.9097 9.74038 16.6603 9.6485 16.0997 9.6335C15.824 9.626 15.5428 9.63725 15.4734 9.65975ZM15.6234 21.3598C15.269 21.476 14.9184 21.7779 14.7478 22.1135C14.6165 22.376 14.594 22.8504 14.7009 23.1691C14.8772 23.7035 15.4565 24.116 16.0247 24.116C16.5928 24.116 17.1722 23.7035 17.3484 23.1691C17.4553 22.8504 17.4328 22.376 17.3015 22.1135C17.1797 21.8735 16.8872 21.5773 16.649 21.4535C16.4315 21.341 15.8447 21.2866 15.6234 21.3598Z" fill="black"/>
</g>
<defs>
<clipPath id="clip0_2185_10629">
<rect width="30" height="30" fill="white" transform="translate(1.02441 1.61621)"/>
</clipPath>
</defs>
</svg>
