<svg width="61" height="61" viewBox="0 0 61 61" fill="none" xmlns="http://www.w3.org/2000/svg">
<rect width="60.8" height="60.8" rx="8" fill="#EFF3FA"/>
<path d="M25.5629 14.1621L18.0379 19.0746C15.6254 20.6496 15.6254 24.1746 18.0379 25.7496L25.5629 30.6621C26.9129 31.5496 29.1379 31.5496 30.4879 30.6621L37.9754 25.7496C40.3754 24.1746 40.3754 20.6621 37.9754 19.0871L30.4879 14.1746C29.1379 13.2746 26.9129 13.2746 25.5629 14.1621Z" stroke="#8A8A8A" stroke-width="1.5" stroke-linecap="round" stroke-linejoin="round"/>
<path d="M20.0379 27.3496L20.0254 33.2121C20.0254 34.7996 21.2504 36.4996 22.7504 36.9996L26.7379 38.3246C27.4254 38.5496 28.5629 38.5496 29.2629 38.3246L33.2504 36.9996C34.7504 36.4996 35.9754 34.7996 35.9754 33.2121V27.4121" stroke="#8A8A8A" stroke-width="1.5" stroke-linecap="round" stroke-linejoin="round"/>
<path d="M39.75 29.75V22.25" stroke="#8A8A8A" stroke-width="1.5" stroke-linecap="round" stroke-linejoin="round"/>
</svg>
