<svg width="36" height="37" viewBox="0 0 36 37" fill="none" xmlns="http://www.w3.org/2000/svg">
<path d="M16.597 27.4038H19.5825V24.4183H16.597V27.4038ZM18.0898 3.51953C9.84971 3.51953 3.16211 10.2071 3.16211 18.4472C3.16211 26.6873 9.84971 33.3749 18.0898 33.3749C26.3299 33.3749 33.0175 26.6873 33.0175 18.4472C33.0175 10.2071 26.3299 3.51953 18.0898 3.51953ZM18.0898 30.3893C11.5067 30.3893 6.14764 25.0303 6.14764 18.4472C6.14764 11.8641 11.5067 6.50507 18.0898 6.50507C24.6729 6.50507 30.0319 11.8641 30.0319 18.4472C30.0319 25.0303 24.6729 30.3893 18.0898 30.3893ZM18.0898 9.4906C14.7908 9.4906 12.1187 12.1627 12.1187 15.4617H15.1042C15.1042 13.8196 16.4477 12.4761 18.0898 12.4761C19.7318 12.4761 21.0753 13.8196 21.0753 15.4617C21.0753 18.4472 16.597 18.074 16.597 22.9255H19.5825C19.5825 19.5668 24.0609 19.1936 24.0609 15.4617C24.0609 12.1627 21.3888 9.4906 18.0898 9.4906Z" fill="black"/>
</svg>
