<svg width="33" height="33" viewBox="0 0 33 33" fill="none" xmlns="http://www.w3.org/2000/svg">
<path d="M4.21191 8.89078L13.1334 4.70819C15.0281 3.81993 17.1513 3.81993 19.046 4.70819L27.9676 8.89084C29.9082 9.80064 29.9082 12.9501 27.9676 13.8599L19.0461 18.0424C17.1514 18.9307 15.0282 18.9307 13.1335 18.0424L6.75645 15.0528" stroke="black" stroke-width="2.5" stroke-linecap="round"/>
<path d="M3.42334 20.0423V16.2258C3.42334 14.5202 3.42334 13.6674 3.86377 12.9994C4.30419 12.3315 5.08805 11.9955 6.65577 11.3237L8.09 10.709" stroke="black" stroke-width="2.5" stroke-linecap="round" stroke-linejoin="round"/>
<path d="M25.423 15.375V22.2089C25.423 23.5529 24.7517 24.8113 23.5759 25.4625C21.6181 26.5466 18.4843 28.0417 16.0897 28.0417C13.695 28.0417 10.5613 26.5466 8.60345 25.4625C7.42768 24.8113 6.75635 23.5529 6.75635 22.2089V15.375" stroke="black" stroke-width="2.5" stroke-linecap="round"/>
</svg>
