<svg width="215" height="73" viewBox="0 0 215 73" fill="none" xmlns="http://www.w3.org/2000/svg">
<g filter="url(#filter0_d_2956_8360)">
<mask id="path-1-inside-1_2956_8360" fill="white">
<path d="M4 0H178V65H4V0Z"/>
</mask>
<path d="M178 65V63H4V65V67H178V65Z" fill="#800080" mask="url(#path-1-inside-1_2956_8360)"/>
<path d="M23.0205 46.952C21.6285 46.952 20.3805 46.696 19.2765 46.184C18.1885 45.688 17.3325 44.992 16.7085 44.096C16.0845 43.2 15.7725 42.184 15.7725 41.048C15.7725 40.728 15.7965 40.304 15.8445 39.776C15.8925 39.248 15.9565 38.656 16.0365 38C16.1325 37.344 16.2285 36.68 16.3245 36.008C16.4365 35.32 16.5405 34.656 16.6365 34.016L19.8045 34.448C19.6285 35.52 19.4765 36.504 19.3485 37.4C19.2365 38.28 19.1485 39.032 19.0845 39.656C19.0205 40.28 18.9885 40.736 18.9885 41.024C18.9885 41.664 19.1485 42.216 19.4685 42.68C19.7885 43.144 20.2445 43.504 20.8365 43.76C21.4445 44.032 22.1725 44.168 23.0205 44.168C23.9005 44.168 24.6125 44.04 25.1565 43.784C25.7005 43.528 26.0925 43.176 26.3325 42.728C26.5885 42.28 26.7165 41.776 26.7165 41.216V24.032H29.9325V41.216C29.9325 42.368 29.6285 43.376 29.0205 44.24C28.4285 45.104 27.6125 45.768 26.5725 46.232C25.5325 46.712 24.3485 46.952 23.0205 46.952ZM43.9297 41V38.216H46.4498V41H43.9297ZM37.4498 46.952C36.8578 46.952 36.2338 46.904 35.5778 46.808C34.9378 46.728 34.2498 46.616 33.5138 46.472L33.9938 43.904C34.7938 44 35.4738 44.072 36.0338 44.12C36.5938 44.168 37.0658 44.192 37.4498 44.192C38.6018 44.192 39.4338 43.984 39.9458 43.568C40.4578 43.152 40.7138 42.528 40.7138 41.696V31.16L41.5058 31.736H38.5058C37.8498 31.736 37.3218 31.816 36.9218 31.976C36.5218 32.12 36.2258 32.432 36.0338 32.912C35.8578 33.376 35.7698 34.088 35.7698 35.048C35.7698 35.96 35.8498 36.648 36.0098 37.112C36.1858 37.56 36.4738 37.856 36.8738 38C37.2738 38.144 37.8178 38.216 38.5058 38.216H40.7138V41H38.5058C37.1458 41 36.0258 40.784 35.1458 40.352C34.2658 39.92 33.6098 39.264 33.1777 38.384C32.7618 37.504 32.5538 36.392 32.5538 35.048C32.5538 33.704 32.7618 32.584 33.1777 31.688C33.6098 30.776 34.2658 30.096 35.1458 29.648C36.0258 29.184 37.1458 28.952 38.5058 28.952H43.9297V41.696C43.9297 42.784 43.6578 43.72 43.1138 44.504C42.5858 45.304 41.8338 45.912 40.8578 46.328C39.8978 46.744 38.7618 46.952 37.4498 46.952ZM46.4498 41V38.216C46.5458 38.216 46.6178 38.248 46.6658 38.312C46.7298 38.376 46.7778 38.472 46.8098 38.6C46.8578 38.728 46.8898 38.88 46.9058 39.056C46.9218 39.216 46.9298 39.4 46.9298 39.608C46.9298 39.816 46.9218 40.008 46.9058 40.184C46.8898 40.36 46.8578 40.512 46.8098 40.64C46.7778 40.752 46.7298 40.84 46.6658 40.904C46.6178 40.968 46.5458 41 46.4498 41ZM46.4531 41V38.216H56.7731L55.6931 39.104V34.664C55.6931 33.704 55.3891 32.976 54.7811 32.48C54.1891 31.984 53.2451 31.736 51.9491 31.736C51.5811 31.736 51.0771 31.768 50.4371 31.832C49.7971 31.88 49.1011 31.96 48.3491 32.072L48.0371 29.528C48.7251 29.368 49.4211 29.232 50.1251 29.12C50.8451 29.008 51.5491 28.952 52.2371 28.952C53.5491 28.952 54.7011 29.184 55.6931 29.648C56.6851 30.096 57.4611 30.744 58.0211 31.592C58.5971 32.44 58.8851 33.464 58.8851 34.664V41H46.4531ZM46.4531 41C46.3571 41 46.2851 40.968 46.2371 40.904C46.1731 40.84 46.1251 40.752 46.0931 40.64C46.0451 40.512 46.0131 40.36 45.9971 40.184C45.9811 40.008 45.9731 39.816 45.9731 39.608C45.9731 39.32 45.9891 39.08 46.0211 38.888C46.0531 38.68 46.1091 38.52 46.1891 38.408C46.2531 38.28 46.3411 38.216 46.4531 38.216V41ZM50.6051 27.056V24.32H53.8211V27.056H50.6051ZM71.0321 41V38.216H73.5521V41H71.0321ZM61.2881 41V38.216H70.0001L67.8161 40.112V36.08C67.8161 34.944 67.6961 34.064 67.4561 33.44C67.2321 32.816 66.8481 32.376 66.3041 32.12C65.7761 31.864 65.0481 31.736 64.1201 31.736H62.1761V28.952H64.1201C65.5921 28.952 66.8401 29.192 67.8641 29.672C68.9041 30.152 69.6881 30.92 70.2161 31.976C70.7601 33.016 71.0321 34.384 71.0321 36.08V41H61.2881ZM73.5521 41V38.216C73.6481 38.216 73.7281 38.248 73.7921 38.312C73.8561 38.376 73.9041 38.472 73.9361 38.6C73.9681 38.728 73.9921 38.88 74.0081 39.056C74.0241 39.216 74.0321 39.4 74.0321 39.608C74.0321 39.816 74.0241 40.008 74.0081 40.184C73.9921 40.36 73.9681 40.512 73.9361 40.64C73.9041 40.752 73.8561 40.84 73.7921 40.904C73.7281 40.968 73.6481 41 73.5521 41ZM76.2589 41V24.032H79.4749V41H76.2589ZM73.5469 41V38.216H76.2589V41H73.5469ZM73.5469 41C73.4509 41 73.3789 40.968 73.3309 40.904C73.2669 40.84 73.2189 40.752 73.1869 40.64C73.1389 40.512 73.1069 40.36 73.0909 40.184C73.0749 40.008 73.0669 39.816 73.0669 39.608C73.0669 39.32 73.0829 39.08 73.1149 38.888C73.1469 38.68 73.2029 38.52 73.2829 38.408C73.3469 38.28 73.4349 38.216 73.5469 38.216V41ZM83.3241 41V24.032H86.5161V41H83.3241ZM109.034 41V38.216H111.554V41H109.034ZM102.122 46.952C100.73 46.952 99.4821 46.696 98.3781 46.184C97.2901 45.688 96.4341 44.992 95.8101 44.096C95.1861 43.2 94.8741 42.184 94.8741 41.048C94.8741 40.728 94.8981 40.304 94.9461 39.776C94.9941 39.248 95.0581 38.656 95.1381 38C95.2341 37.344 95.3301 36.68 95.4261 36.008C95.5381 35.32 95.6421 34.656 95.7381 34.016L98.9061 34.448C98.7301 35.52 98.5781 36.504 98.4501 37.4C98.3381 38.28 98.2501 39.032 98.1861 39.656C98.1221 40.28 98.0901 40.736 98.0901 41.024C98.0901 41.664 98.2501 42.216 98.5701 42.68C98.8901 43.144 99.3461 43.504 99.9381 43.76C100.546 44.032 101.274 44.168 102.122 44.168C103.002 44.168 103.714 44.04 104.258 43.784C104.802 43.528 105.194 43.176 105.434 42.728C105.69 42.28 105.818 41.776 105.818 41.216V24.032H109.034V41.216C109.034 42.368 108.73 43.376 108.122 44.24C107.53 45.104 106.714 45.768 105.674 46.232C104.634 46.712 103.45 46.952 102.122 46.952ZM111.554 41V38.216C111.65 38.216 111.722 38.248 111.77 38.312C111.834 38.376 111.882 38.472 111.914 38.6C111.962 38.728 111.994 38.88 112.01 39.056C112.026 39.216 112.034 39.4 112.034 39.608C112.034 39.816 112.026 40.008 112.01 40.184C111.994 40.36 111.962 40.512 111.914 40.64C111.882 40.752 111.834 40.84 111.77 40.904C111.722 40.968 111.65 41 111.554 41ZM118.571 41V38.216H121.571V41H118.571ZM121.571 41V38.216C121.651 38.216 121.723 38.248 121.787 38.312C121.851 38.376 121.899 38.472 121.931 38.6C121.963 38.728 121.987 38.88 122.003 39.056C122.035 39.216 122.051 39.4 122.051 39.608C122.051 39.816 122.035 40.008 122.003 40.184C121.987 40.36 121.963 40.512 121.931 40.64C121.899 40.752 121.851 40.84 121.787 40.904C121.739 40.968 121.667 41 121.571 41ZM111.562 41C111.466 41 111.394 40.968 111.346 40.904C111.282 40.84 111.234 40.752 111.202 40.64C111.154 40.512 111.122 40.36 111.106 40.184C111.09 40.008 111.082 39.816 111.082 39.608C111.082 39.32 111.098 39.08 111.13 38.888C111.162 38.68 111.218 38.52 111.298 38.408C111.362 38.28 111.45 38.216 111.562 38.216V41ZM111.562 41V38.216H117.251L115.379 39.776V28.952H118.571V41H111.562ZM112.427 46.112V43.376H115.523V46.112H112.427ZM116.795 46.112V43.376H119.891V46.112H116.795ZM134.002 41V38.216H136.546V41H134.002ZM121.57 41C121.474 41 121.402 40.968 121.354 40.904C121.29 40.84 121.242 40.752 121.21 40.64C121.162 40.512 121.13 40.36 121.114 40.184C121.098 40.008 121.09 39.816 121.09 39.608C121.09 39.32 121.106 39.08 121.138 38.888C121.17 38.68 121.226 38.52 121.306 38.408C121.37 38.28 121.458 38.216 121.57 38.216V41ZM121.57 41V38.216H131.89L130.81 39.104V34.664C130.81 33.704 130.506 32.976 129.898 32.48C129.306 31.984 128.362 31.736 127.066 31.736C126.698 31.736 126.194 31.768 125.554 31.832C124.914 31.88 124.218 31.96 123.466 32.072L123.154 29.528C123.842 29.368 124.538 29.232 125.242 29.12C125.962 29.008 126.666 28.952 127.354 28.952C128.666 28.952 129.818 29.184 130.81 29.648C131.802 30.096 132.578 30.744 133.138 31.592C133.714 32.44 134.002 33.464 134.002 34.664V41H121.57ZM136.546 41V38.216C136.626 38.216 136.698 38.248 136.762 38.312C136.826 38.376 136.874 38.472 136.906 38.6C136.938 38.728 136.962 38.88 136.978 39.056C137.01 39.216 137.026 39.4 137.026 39.608C137.026 39.816 137.01 40.008 136.978 40.184C136.962 40.36 136.938 40.512 136.906 40.64C136.874 40.752 136.826 40.84 136.762 40.904C136.698 40.968 136.626 41 136.546 41ZM126.202 46.112V43.376H129.418V46.112H126.202ZM156.683 41V38.216H159.227V41H156.683ZM136.547 41C136.451 41 136.379 40.968 136.331 40.904C136.267 40.84 136.219 40.752 136.187 40.64C136.139 40.512 136.107 40.36 136.091 40.184C136.075 40.008 136.067 39.816 136.067 39.608C136.067 39.32 136.083 39.08 136.115 38.888C136.147 38.68 136.203 38.52 136.283 38.408C136.347 38.28 136.435 38.216 136.547 38.216V41ZM150.659 41C150.003 41 149.347 40.88 148.691 40.64C148.051 40.384 147.459 40.008 146.915 39.512L148.883 37.472C149.203 37.728 149.499 37.92 149.771 38.048C150.059 38.16 150.355 38.216 150.659 38.216H155.147L153.491 39.728V34.4C153.491 34.144 153.459 33.76 153.395 33.248C153.347 32.72 153.267 32.128 153.155 31.472C153.059 30.8 152.939 30.12 152.795 29.432L155.963 28.952C156.075 29.528 156.179 30.176 156.275 30.896C156.387 31.6 156.483 32.272 156.563 32.912C156.643 33.536 156.683 34.032 156.683 34.4V41H150.659ZM136.547 41V38.216H140.051L139.331 38.96V31.4H142.547V41H136.547ZM142.547 41V38.216H144.491C145.003 38.216 145.395 38.144 145.667 38C145.939 37.84 146.123 37.528 146.219 37.064C146.331 36.584 146.387 35.872 146.387 34.928V30.2H149.603V34.928C149.603 36.352 149.419 37.512 149.051 38.408C148.699 39.304 148.147 39.96 147.395 40.376C146.643 40.792 145.675 41 144.491 41H142.547ZM159.227 41V38.216C159.307 38.216 159.379 38.248 159.443 38.312C159.507 38.376 159.555 38.472 159.587 38.6C159.619 38.728 159.643 38.88 159.659 39.056C159.691 39.216 159.707 39.4 159.707 39.608C159.707 39.816 159.691 40.008 159.659 40.184C159.643 40.36 159.619 40.512 159.587 40.64C159.555 40.752 159.507 40.84 159.443 40.904C159.379 40.968 159.307 41 159.227 41ZM159.234 41V38.216H164.922L163.05 39.776V28.952H166.242V41H159.234ZM159.234 41C159.138 41 159.066 40.968 159.018 40.904C158.954 40.84 158.906 40.752 158.874 40.64C158.826 40.512 158.794 40.36 158.778 40.184C158.762 40.008 158.754 39.816 158.754 39.608C158.754 39.32 158.77 39.08 158.802 38.888C158.834 38.68 158.89 38.52 158.97 38.408C159.034 38.28 159.122 38.216 159.234 38.216V41ZM160.938 26.744V24.008H164.034V26.744H160.938ZM165.306 26.744V24.008H168.402V26.744H165.306Z" fill="#800080"/>
</g>
<path d="M177.835 40.998H201.168M201.168 40.998L195.335 35.998M201.168 40.998L195.335 45.998" stroke="black" stroke-width="4" stroke-linecap="round" stroke-linejoin="round"/>
<path d="M189.503 32.6663C189.524 29.0413 189.684 27.0781 190.965 25.7975C192.43 24.333 194.787 24.333 199.501 24.333H201.167C205.881 24.333 208.238 24.333 209.703 25.7975C211.167 27.2619 211.167 29.619 211.167 34.333V47.6663C211.167 52.3803 211.167 54.7373 209.703 56.2018C208.238 57.6663 205.881 57.6663 201.167 57.6663H199.501C194.787 57.6663 192.43 57.6663 190.965 56.2018C189.684 54.9212 189.524 52.958 189.503 49.333" stroke="#800080" stroke-width="4" stroke-linecap="round"/>
<defs>
<filter id="filter0_d_2956_8360" x="0" y="0" width="182" height="73" filterUnits="userSpaceOnUse" color-interpolation-filters="sRGB">
<feFlood flood-opacity="0" result="BackgroundImageFix"/>
<feColorMatrix in="SourceAlpha" type="matrix" values="0 0 0 0 0 0 0 0 0 0 0 0 0 0 0 0 0 0 127 0" result="hardAlpha"/>
<feOffset dy="4"/>
<feGaussianBlur stdDeviation="2"/>
<feComposite in2="hardAlpha" operator="out"/>
<feColorMatrix type="matrix" values="0 0 0 0 0 0 0 0 0 0 0 0 0 0 0 0 0 0 0.25 0"/>
<feBlend mode="normal" in2="BackgroundImageFix" result="effect1_dropShadow_2956_8360"/>
<feBlend mode="normal" in="SourceGraphic" in2="effect1_dropShadow_2956_8360" result="shape"/>
</filter>
</defs>
</svg>
