<svg width="202" height="276" viewBox="0 0 202 276" fill="none" xmlns="http://www.w3.org/2000/svg">
<path d="M191.057 266.881C191.064 255.11 188.752 243.453 184.252 232.576C179.753 221.699 173.154 211.815 164.833 203.489C156.512 195.163 146.632 188.558 135.758 184.052C124.883 179.546 113.228 177.227 101.457 177.227C89.6854 177.227 78.0297 179.546 67.1553 184.052C56.2809 188.558 46.401 195.163 38.0801 203.489C29.7592 211.815 23.1604 221.699 18.6607 232.576C14.161 243.453 11.8486 255.11 11.8557 266.881H191.057Z" stroke="#A7A7A7" stroke-width="8.5"/>
<path d="M141.429 115.461C141.423 121.266 140.261 127.011 138.013 132.363C135.764 137.714 132.472 142.564 128.33 146.631C124.188 150.698 119.279 153.899 113.887 156.05C108.495 158.2 102.729 159.256 96.9255 159.156C85.3063 158.693 74.3255 153.717 66.3173 145.286C58.309 136.854 53.9045 125.632 54.0402 114.005V53.1559C54.0391 53.0786 54.0657 53.0035 54.1151 52.9442C54.1646 52.8848 54.2337 52.8451 54.3099 52.8322C69.079 50.591 83.9845 49.3654 98.9214 49.1641C113.214 49.356 127.475 50.5819 141.591 52.8322C141.677 52.8322 141.759 52.8663 141.82 52.927C141.881 52.9877 141.915 53.0701 141.915 53.1559L141.429 115.461Z" stroke="#A7A7A7" stroke-width="8.5"/>
<path d="M54.0399 73.0607L9.42826 52.5621C9.37257 52.5221 9.32721 52.4695 9.29591 52.4085C9.26461 52.3475 9.24829 52.28 9.24829 52.2114C9.24829 52.1429 9.26461 52.0754 9.29591 52.0144C9.32721 51.9534 9.37257 51.9008 9.42826 51.8608L97.7884 9.67676H98.112L186.202 51.4293C186.258 51.4628 186.304 51.5103 186.337 51.567C186.369 51.6237 186.386 51.6878 186.386 51.7529C186.386 51.8181 186.369 51.8821 186.337 51.9389C186.304 51.9956 186.258 52.043 186.202 52.0766L141.914 73.0607" stroke="#A7A7A7" stroke-width="8.5"/>
<path d="M54.0398 95.7715H41.5249C41.5249 95.7715 30.7361 95.7715 30.7361 112.494C30.7361 127.922 41.5249 127.922 41.5249 127.922H56.1976" stroke="#A7A7A7" stroke-width="8.5"/>
<path d="M141.429 97.7129H153.944C153.944 97.7129 164.733 97.7129 164.733 114.382C164.733 129.81 153.944 129.81 153.944 129.81H139.217" stroke="#A7A7A7" stroke-width="8.5"/>
<path d="M181.563 143.242V54.6123" stroke="#A7A7A7" stroke-width="8.5"/>
<path d="M181.563 166.221C187.909 166.221 193.053 161.077 193.053 154.731C193.053 148.385 187.909 143.241 181.563 143.241C175.217 143.241 170.073 148.385 170.073 154.731C170.073 161.077 175.217 166.221 181.563 166.221Z" stroke="#A7A7A7" stroke-width="8.5"/>
<path d="M141.914 88.4891C127.766 85.9184 113.409 84.6723 99.0289 84.767C83.9447 84.4643 68.8692 85.7116 54.0398 88.4891" stroke="#A7A7A7" stroke-width="8.5"/>
</svg>
