<svg width="300" height="300" viewBox="0 0 300 300" fill="none" xmlns="http://www.w3.org/2000/svg">
<g clip-path="url(#clip0_190_883)">
<path d="M177.068 6.93359H7.64591C3.42305 6.93359 0 10.3566 0 14.5795V140.14C0 144.363 3.42305 147.786 7.64591 147.786H173.958L153.83 135.288C152.513 134.47 151.321 133.529 150.25 132.494H15.2912V22.2248H169.422V96.465C171.771 96.9613 174.076 97.8654 176.233 99.2054L184.714 104.471V14.5795C184.714 10.3566 181.291 6.93359 177.068 6.93359Z" fill="#919BA3"/>
<path d="M127.065 78.7136C124.515 76.7038 120.816 77.1403 118.805 79.6909C116.794 82.2415 117.231 85.94 119.782 87.9509L145.727 108.408C146.096 107.605 146.512 106.815 146.99 106.045C148.68 103.324 150.886 101.122 153.4 99.4787L127.065 78.7136Z" fill="#919BA3"/>
<path d="M245.924 69.7046C258.078 69.7046 267.93 59.8521 267.93 47.6985C267.93 35.5448 258.078 25.6924 245.924 25.6924C233.77 25.6924 223.918 35.5448 223.918 47.6985C223.918 59.8521 233.77 69.7046 245.924 69.7046Z" fill="#919BA3"/>
<path d="M299.608 101.725C299.539 87.9387 288.267 76.7227 274.481 76.7227H263.825C253.377 103.818 257.187 93.9381 250.637 110.924L253.396 97.0231C253.599 96.0012 253.435 94.9401 252.933 94.0272L248.608 86.1615L252.447 79.1807C252.713 78.6967 252.704 78.109 252.423 77.6338C252.142 77.1586 251.631 76.8674 251.079 76.8674H240.556C240.004 76.8674 239.494 77.1586 239.212 77.6338C238.931 78.109 238.922 78.6973 239.188 79.1807L243.019 86.1469L238.702 93.9985C238.191 94.9295 238.03 96.0129 238.251 97.0518L241.437 110.924C239.61 106.185 229.086 80.0285 227.811 76.7227H217.364C203.577 76.7227 192.306 87.9381 192.237 101.725C192.179 113.189 192.227 103.587 192.137 121.579L170.632 108.227C165.651 105.133 159.104 106.664 156.011 111.646C152.918 116.629 154.449 123.175 159.43 126.268L197.059 149.631C204.106 154.008 213.236 148.947 213.278 140.664C213.299 136.509 213.449 106.791 213.473 101.831C213.481 100.605 214.478 99.6182 215.703 99.6223C216.927 99.6264 217.917 100.62 217.917 101.845C217.906 153.011 217.686 167.315 217.686 280.326C217.686 287.363 223.391 293.068 230.428 293.068C237.465 293.068 243.17 287.363 243.17 280.326V178.48H248.671V280.326C248.671 287.363 254.375 293.068 261.412 293.068C268.45 293.068 274.154 287.363 274.154 280.326L274.159 101.842C274.159 100.681 275.099 99.7389 276.26 99.7354C277.421 99.7319 278.367 100.669 278.372 101.831L278.764 179.838C278.794 185.684 283.542 190.403 289.381 190.403C289.399 190.403 289.417 190.403 289.436 190.403C295.3 190.374 300.03 185.595 300.001 179.732L299.608 101.725Z" fill="#919BA3"/>
</g>
<defs>
<clipPath id="clip0_190_883">
<rect width="300" height="300" fill="white"/>
</clipPath>
</defs>
</svg>
