<svg width="33" height="33" viewBox="0 0 33 33" fill="none" xmlns="http://www.w3.org/2000/svg">
<path fill-rule="evenodd" clip-rule="evenodd" d="M29.3573 15.1676C28.6884 8.42988 23.0036 3.16764 16.0898 3.16764C9.17604 3.16764 3.49131 8.42988 2.82235 15.1676H8.7096L13.647 7.76138C14.3176 6.75567 15.873 7.08951 16.0717 8.28178L18.1841 20.9559L21.647 15.7614C21.8944 15.3904 22.3106 15.1676 22.7565 15.1676H29.3573ZM29.3573 17.8343H23.4701L18.5326 25.2406C17.8621 26.2463 16.3066 25.9124 16.108 24.7202L13.9956 12.046L10.5326 17.2406C10.2853 17.6115 9.86898 17.8343 9.42318 17.8343H2.82235C3.49131 24.572 9.17604 29.8343 16.0898 29.8343C23.0036 29.8343 28.6884 24.572 29.3573 17.8343ZM32.0898 16.501C32.0898 25.3375 24.9264 32.501 16.0898 32.501C7.25328 32.501 0.0898438 25.3375 0.0898438 16.501C0.0898438 7.66442 7.25328 0.500977 16.0898 0.500977C24.9264 0.500977 32.0898 7.66442 32.0898 16.501Z" fill="black"/>
</svg>
