<svg width="40" height="40" viewBox="0 0 40 40" fill="none" xmlns="http://www.w3.org/2000/svg">
<path d="M36.875 5.625H35.625V14.375H36.875V5.625Z" fill="#0455BF"/>
<path d="M36.25 5.625H35.625V14.375H36.25V5.625Z" fill="#004787"/>
<path d="M38.125 23.125H34.375C34.2092 23.125 34.0503 23.0592 33.9331 22.9419C33.8158 22.8247 33.75 22.6658 33.75 22.5V15C33.75 14.8342 33.8158 14.6753 33.9331 14.5581C34.0503 14.4408 34.2092 14.375 34.375 14.375H38.125C38.2908 14.375 38.4497 14.4408 38.5669 14.5581C38.6842 14.6753 38.75 14.8342 38.75 15V22.5C38.75 22.6658 38.6842 22.8247 38.5669 22.9419C38.4497 23.0592 38.2908 23.125 38.125 23.125Z" fill="#F74E0C"/>
<path d="M38.75 21.875C37.7554 21.875 36.8016 21.4799 36.0983 20.7767C35.3951 20.0734 35 19.1196 35 18.125V14.375H34.375C34.2092 14.375 34.0503 14.4408 33.9331 14.5581C33.8158 14.6753 33.75 14.8342 33.75 15V22.5C33.75 22.6658 33.8158 22.8247 33.9331 22.9419C34.0503 23.0592 34.2092 23.125 34.375 23.125H38.125C38.2908 23.125 38.4497 23.0592 38.5669 22.9419C38.6842 22.8247 38.75 22.6658 38.75 22.5V21.875Z" fill="#CC2600"/>
<path d="M31.875 17.5H10.625C10.4592 17.5 10.3003 17.4342 10.1831 17.3169C10.0658 17.1997 10 17.0408 10 16.875V5.625C10 5.45924 10.0658 5.30027 10.1831 5.18306C10.3003 5.06585 10.4592 5 10.625 5H31.875C32.0408 5 32.1997 5.06585 32.3169 5.18306C32.4342 5.30027 32.5 5.45924 32.5 5.625V16.875C32.5 17.0408 32.4342 17.1997 32.3169 17.3169C32.1997 17.4342 32.0408 17.5 31.875 17.5Z" fill="#0455BF"/>
<path d="M22.5 16.25C19.5163 16.25 16.6548 15.0647 14.545 12.955C12.4353 10.8452 11.25 7.98369 11.25 5H10.625C10.4592 5 10.3003 5.06585 10.1831 5.18306C10.0658 5.30027 10 5.45924 10 5.625V16.875C10 17.0408 10.0658 17.1997 10.1831 17.3169C10.3003 17.4342 10.4592 17.5 10.625 17.5H31.875C32.0408 17.5 32.1997 17.4342 32.3169 17.3169C32.4342 17.1997 32.5 17.0408 32.5 16.875V16.25H22.5Z" fill="#004787"/>
<path d="M37.5 6.25H5C4.83424 6.25 4.67527 6.18415 4.55806 6.06694C4.44085 5.94973 4.375 5.79076 4.375 5.625V3.125C4.375 2.95924 4.44085 2.80027 4.55806 2.68306C4.67527 2.56585 4.83424 2.5 5 2.5H37.5C37.6658 2.5 37.8247 2.56585 37.9419 2.68306C38.0592 2.80027 38.125 2.95924 38.125 3.125V5.625C38.125 5.79076 38.0592 5.94973 37.9419 6.06694C37.8247 6.18415 37.6658 6.25 37.5 6.25Z" fill="#0455BF"/>
<path d="M6.25 5C6.08424 5 5.92527 4.93415 5.80806 4.81694C5.69085 4.69973 5.625 4.54076 5.625 4.375V2.5H5C4.83424 2.5 4.67527 2.56585 4.55806 2.68306C4.44085 2.80027 4.375 2.95924 4.375 3.125V5.625C4.375 5.79076 4.44085 5.94973 4.55806 6.06694C4.67527 6.18415 4.83424 6.25 5 6.25H37.5C37.6658 6.25 37.8247 6.18415 37.9419 6.06694C38.0592 5.94973 38.125 5.79076 38.125 5.625V5H6.25Z" fill="#004787"/>
<path d="M36.25 35.0002H7.50002C6.976 34.9995 6.45791 34.8892 5.97904 34.6764C5.50017 34.4636 5.0711 34.153 4.71937 33.7645C4.36765 33.3761 4.10105 32.9184 3.93669 32.4208C3.77234 31.9232 3.71386 31.3967 3.76502 30.8752C3.8852 29.9356 4.34621 29.0728 5.06054 28.4506C5.77487 27.8285 6.69279 27.4903 7.64002 27.5002H36.25C36.4158 27.5002 36.5748 27.5661 36.692 27.6833C36.8092 27.8005 36.875 27.9595 36.875 28.1252V34.3752C36.875 34.541 36.8092 34.6999 36.692 34.8172C36.5748 34.9344 36.4158 35.0002 36.25 35.0002Z" fill="#FDFEFF"/>
<path d="M26.8 23.75H3.75C3.58424 23.75 3.42527 23.6842 3.30806 23.5669C3.19085 23.4497 3.125 23.2908 3.125 23.125V19.375C3.125 19.2092 3.19085 19.0503 3.30806 18.9331C3.42527 18.8158 3.58424 18.75 3.75 18.75H26.875C27.2451 18.7499 27.6107 18.8319 27.9453 18.9903C28.2798 19.1486 28.5751 19.3793 28.8097 19.6656C29.0442 19.9519 29.2123 20.2867 29.3018 20.6459C29.3912 21.0051 29.3998 21.3796 29.3269 21.7425C29.2042 22.3184 28.885 22.8337 28.4239 23.2C27.9629 23.5663 27.3887 23.7607 26.8 23.75Z" fill="#FDFEFF"/>
<path d="M36.8747 37.5H7.69967C6.08998 37.5219 4.53162 36.9339 3.33752 35.8543C2.14343 34.7746 1.40201 33.2831 1.26217 31.6794C1.20137 30.8233 1.31885 29.9639 1.60716 29.1556C1.89547 28.3472 2.34835 27.6075 2.93717 26.9831C3.52219 26.3589 4.22875 25.8609 5.01338 25.5198C5.79801 25.1788 6.64412 25.0019 7.49967 25H36.8747C37.3719 25 37.8489 25.1975 38.2005 25.5492C38.5521 25.9008 38.7497 26.3777 38.7497 26.875C38.7469 27.3714 38.5484 27.8467 38.1974 28.1977C37.8464 28.5488 37.3711 28.7472 36.8747 28.75H7.63717C7.00011 28.7389 6.3811 28.9618 5.89733 29.3764C5.41357 29.7911 5.09864 30.3687 5.01217 31C4.97657 31.348 5.01497 31.6995 5.12484 32.0316C5.2347 32.3637 5.41356 32.6688 5.64967 32.9269C5.88394 33.1851 6.16944 33.3916 6.48796 33.5333C6.80648 33.675 7.15104 33.7488 7.49967 33.75H36.8747C37.3719 33.75 37.8489 33.9475 38.2005 34.2992C38.5521 34.6508 38.7497 35.1277 38.7497 35.625C38.7469 36.1214 38.5484 36.5967 38.1974 36.9477C37.8464 37.2988 37.3711 37.4972 36.8747 37.5Z" fill="#FEBC00"/>
<path d="M38.1248 36.25H8.94982C7.34014 36.2718 5.78178 35.6839 4.58768 34.6042C3.39358 33.5245 2.65217 32.0331 2.51232 30.4293C2.40677 28.9414 2.84175 27.4654 3.73732 26.2725C2.9026 26.8921 2.23802 27.7127 1.80533 28.658C1.37263 29.6033 1.18584 30.6426 1.26232 31.6793C1.40217 33.2831 2.14358 34.7745 3.33768 35.8542C4.53178 36.9339 6.09014 37.5218 7.69982 37.5H36.8748C37.277 37.4994 37.6683 37.369 37.9904 37.1281C38.3125 36.8872 38.5481 36.5487 38.6623 36.1631C38.4883 36.218 38.3073 36.2473 38.1248 36.25Z" fill="#EDAA03"/>
<path d="M26.725 26.25H3.75C3.25272 26.25 2.77581 26.0525 2.42417 25.7008C2.07254 25.3492 1.875 24.8723 1.875 24.375C1.87779 23.8786 2.07623 23.4033 2.42726 23.0523C2.77828 22.7012 3.25358 22.5028 3.75 22.5H26.8C27.0972 22.5079 27.3882 22.4138 27.6245 22.2334C27.8608 22.0529 28.0282 21.797 28.0988 21.5081C28.1372 21.326 28.1345 21.1376 28.0908 20.9567C28.0471 20.7758 27.9636 20.6069 27.8463 20.4624C27.7291 20.3179 27.581 20.2013 27.413 20.1214C27.2449 20.0414 27.0611 19.9999 26.875 20H3.75C3.25272 20 2.77581 19.8025 2.42417 19.4508C2.07254 19.0992 1.875 18.6223 1.875 18.125C1.87779 17.6286 2.07623 17.1533 2.42726 16.8023C2.77828 16.4512 3.25358 16.2528 3.75 16.25H26.875C27.5867 16.2507 28.29 16.4031 28.9381 16.6971C29.5862 16.9911 30.1641 17.4199 30.6333 17.955C31.1026 18.4901 31.4523 19.119 31.6592 19.8C31.8661 20.4809 31.9254 21.1981 31.8331 21.9038C31.6536 23.1245 31.0365 24.2384 30.0968 25.0379C29.1571 25.8375 27.9587 26.2683 26.725 26.25Z" fill="#F74E0C"/>
<path d="M30.6304 17.9519C30.3643 17.6515 30.063 17.3844 29.7329 17.1562C30.4394 18.1776 30.7422 19.4246 30.5829 20.6562C30.4028 21.8765 29.7855 22.9898 28.8458 23.7889C27.9062 24.588 26.7081 25.0184 25.4748 25H2.49977C2.31743 24.9974 2.13649 24.9677 1.96289 24.9119C2.07735 25.2973 2.31298 25.6357 2.63484 25.8767C2.9567 26.1177 3.34766 26.2486 3.74977 26.25H26.7248C27.9585 26.2683 29.1568 25.8375 30.0966 25.0379C31.0363 24.2384 31.6534 23.1245 31.8329 21.9038C31.9246 21.1974 31.8648 20.4797 31.6574 19.7983C31.4501 19.1168 31.1 18.4874 30.6304 17.9519Z" fill="#CC2600"/>
<path d="M26.25 20.625H19.375V21.875H26.25V20.625Z" fill="#DFEAEF"/>
<path d="M36.875 30.625H24.375V31.875H36.875V30.625Z" fill="#DFEAEF"/>
<path d="M23.125 30.625H21.875V31.875H23.125V30.625Z" fill="#DFEAEF"/>
<path d="M18.125 20.625H16.875V21.875H18.125V20.625Z" fill="#DFEAEF"/>
</svg>
