<svg width="46" height="56" viewBox="0 0 46 56" fill="none" xmlns="http://www.w3.org/2000/svg">
<g filter="url(#filter0_d_305_1698)">
<path d="M31.5971 29.552C29.5301 28.7926 27.7448 28.1369 27.5508 26.2687C27.461 25.4074 27.5341 24.3951 27.7619 23.3384C28.4762 22.573 29.0681 21.4684 29.6747 19.7688C30.8823 19.3036 31.652 18.2695 32.027 16.6093C32.2192 15.7589 31.9443 14.8848 31.2727 14.2025C31.333 13.1708 31.2801 13.1144 31.2412 13.0731L31.1989 13.0312H14.8358V14.1964C14.0626 14.9085 13.7725 15.7201 13.9734 16.6093C14.348 18.2688 15.1178 19.303 16.3266 19.7688C16.933 21.4684 17.5244 22.5723 18.2378 23.3372C18.3987 24.0808 18.5627 25.1817 18.4495 26.2687C18.2555 28.1369 16.4702 28.7926 14.403 29.552C11.5655 30.594 8.34961 31.7756 8.34961 36.477C8.34961 37.9401 12.8948 39.9999 23.0001 39.9999C33.1053 39.9999 37.6505 37.9401 37.6505 36.477C37.6505 31.7756 34.4346 30.5941 31.5971 29.552ZM21.2741 37.8576L18.8611 28.0562L21.7884 29.2748L21.6086 30.8888L22.122 30.8773L21.2741 37.8576ZM24.6486 30.8888L24.4688 29.2748L27.3961 28.0562L24.983 37.8576L24.1351 30.8773L24.6486 30.8888Z" fill="#800080"/>
<path d="M10.1159 6.46711L14.4021 8.35227V11.1958H31.7974V8.35227L33.547 7.58258V11.5852C33.1759 11.6441 32.8916 11.9546 32.8916 12.327C32.8916 12.6509 33.1058 12.9317 33.4154 13.0343L32.9171 16.1763C32.8842 16.3843 32.9437 16.5948 33.0797 16.7537C33.2155 16.9133 33.4141 17.0048 33.6244 17.0048H34.9363C35.1466 17.0048 35.3451 16.9133 35.4806 16.7537C35.617 16.5948 35.6764 16.3844 35.6435 16.1763L35.1455 13.0343C35.4556 12.9318 35.6701 12.6509 35.6701 12.327C35.6701 11.9546 35.3855 11.6441 35.0141 11.5852V6.93781L36.0833 6.46773C36.2939 6.37617 36.4301 6.17172 36.4301 5.94789C36.4301 5.72523 36.2942 5.52148 36.0837 5.42867L24.3227 0.256563C23.9365 0.0860938 23.525 0 23.0995 0C22.674 0 22.2626 0.0860938 21.8766 0.256563L10.1157 5.42867C9.90539 5.52148 9.76953 5.72523 9.76953 5.94789C9.76945 6.17234 9.90562 6.37609 10.1159 6.46711Z" fill="#4B4B4C"/>
</g>
<defs>
<filter id="filter0_d_305_1698" x="-5" y="0" width="56" height="56" filterUnits="userSpaceOnUse" color-interpolation-filters="sRGB">
<feFlood flood-opacity="0" result="BackgroundImageFix"/>
<feColorMatrix in="SourceAlpha" type="matrix" values="0 0 0 0 0 0 0 0 0 0 0 0 0 0 0 0 0 0 127 0" result="hardAlpha"/>
<feOffset dy="8"/>
<feGaussianBlur stdDeviation="4"/>
<feComposite in2="hardAlpha" operator="out"/>
<feColorMatrix type="matrix" values="0 0 0 0 0 0 0 0 0 0 0 0 0 0 0 0 0 0 0.25 0"/>
<feBlend mode="normal" in2="BackgroundImageFix" result="effect1_dropShadow_305_1698"/>
<feBlend mode="normal" in="SourceGraphic" in2="effect1_dropShadow_305_1698" result="shape"/>
</filter>
</defs>
</svg>
